SubSource-HROTn_VROTdd_SLENx_SANGx.ufo
<glyph name="quotedbl" format="2">
  <advance width="350"/>
  <unicode hex="0022"/>
  <outline>
    <contour>
      <point x="144" y="318" type="curve" smooth="yes"/>
      <point x="144" y="390"/>
      <point x="144" y="465"/>
      <point x="118" y="546" type="curve" smooth="yes"/>
      <point x="97" y="610"/>
      <point x="183" y="638"/>
      <point x="204" y="574" type="curve" smooth="yes"/>
      <point x="234" y="481"/>
      <point x="234" y="400"/>
      <point x="234" y="318" type="curve" smooth="yes"/>
      <point x="234" y="251"/>
      <point x="144" y="251"/>
    </contour>
    <contour>
      <point x="275" y="357" type="curve" smooth="yes"/>
      <point x="293" y="394"/>
      <point x="282" y="477"/>
      <point x="259" y="546" type="curve" smooth="yes"/>
      <point x="238" y="610"/>
      <point x="323" y="638"/>
      <point x="345" y="574" type="curve" smooth="yes"/>
      <point x="379" y="471"/>
      <point x="383" y="375"/>
      <point x="357" y="319" type="curve" smooth="yes"/>
      <point x="328" y="258"/>
      <point x="247" y="296"/>
    </contour>
  </outline>
</glyph>
<glyph name="quotesingle" format="2">
  <advance width="211"/>
  <unicode hex="0027"/>
  <outline>
    <contour>
      <point x="145" y="318" type="curve" smooth="yes"/>
      <point x="145" y="390"/>
      <point x="145" y="465"/>
      <point x="119" y="546" type="curve" smooth="yes"/>
      <point x="98" y="610"/>
      <point x="184" y="638"/>
      <point x="205" y="574" type="curve" smooth="yes"/>
      <point x="235" y="481"/>
      <point x="235" y="400"/>
      <point x="235" y="318" type="curve" smooth="yes"/>
      <point x="235" y="251"/>
      <point x="145" y="251"/>
    </contour>
  </outline>
</glyph>
<glyph name="parenleft" format="2">
  <advance width="320"/>
  <unicode hex="0028"/>
  <outline>
    <contour>
      <point x="352" y="-269" type="curve" smooth="yes"/>
      <point x="318" y="-279"/>
      <point x="275" y="-267"/>
      <point x="226" y="-202" type="curve" smooth="yes"/>
      <point x="166" y="-121"/>
      <point x="121" y="7"/>
      <point x="121" y="185" type="curve" smooth="yes"/>
      <point x="121" y="363"/>
      <point x="166" y="491"/>
      <point x="226" y="572" type="curve" smooth="yes"/>
      <point x="255" y="611"/>
      <point x="281" y="647"/>
      <point x="302" y="680" type="curve" smooth="yes"/>
      <point x="337" y="737"/>
      <point x="414" y="690"/>
      <point x="378" y="632" type="curve" smooth="yes"/>
      <point x="357" y="597"/>
      <point x="329" y="559"/>
      <point x="298" y="518" type="curve" smooth="yes"/>
      <point x="247" y="449"/>
      <point x="211" y="337"/>
      <point x="211" y="185" type="curve" smooth="yes"/>
      <point x="211" y="33"/>
      <point x="247" y="-79"/>
      <point x="298" y="-148" type="curve" smooth="yes"/>
      <point x="300" y="-151"/>
      <point x="326" y="-183"/>
      <point x="328" y="-183" type="curve" smooth="yes"/>
      <point x="393" y="-164"/>
      <point x="417" y="-251"/>
    </contour>
  </outline>
</glyph>
<glyph name="parenright" format="2">
  <advance width="320"/>
  <unicode hex="0029"/>
  <outline>
    <contour>
      <point x="144" y="669" type="curve" smooth="yes"/>
      <point x="258" y="624"/>
      <point x="369" y="468"/>
      <point x="369" y="186" type="curve" smooth="yes"/>
      <point x="369" y="-96"/>
      <point x="257" y="-252"/>
      <point x="145" y="-297" type="curve" smooth="yes"/>
      <point x="82" y="-322"/>
      <point x="49" y="-238"/>
      <point x="111" y="-213" type="curve" smooth="yes"/>
      <point x="200" y="-178"/>
      <point x="279" y="-37"/>
      <point x="279" y="186" type="curve" smooth="yes"/>
      <point x="279" y="409"/>
      <point x="201" y="550"/>
      <point x="112" y="585" type="curve" smooth="yes"/>
      <point x="49" y="610"/>
      <point x="82" y="694"/>
    </contour>
  </outline>
</glyph>
<glyph name="asterisk" format="2">
  <advance width="434"/>
  <unicode hex="002A"/>
  <outline>
    <contour>
      <point x="259" y="548" type="curve" smooth="yes"/>
      <point x="320" y="435"/>
      <point x="365" y="341"/>
      <point x="388" y="285" type="curve" smooth="yes"/>
      <point x="432" y="176"/>
      <point x="418" y="146"/>
      <point x="400" y="128" type="curve" smooth="yes"/>
      <point x="352" y="80"/>
      <point x="288" y="144"/>
      <point x="336" y="192" type="curve" smooth="yes"/>
      <point x="337" y="193"/>
      <point x="306" y="246"/>
      <point x="304" y="251" type="curve" smooth="yes"/>
      <point x="283" y="305"/>
      <point x="238" y="397"/>
      <point x="179" y="506" type="curve" smooth="yes"/>
      <point x="147" y="565"/>
      <point x="226" y="608"/>
    </contour>
    <contour>
      <point x="363" y="597" type="curve" smooth="yes"/>
      <point x="364" y="484"/>
      <point x="310" y="437"/>
      <point x="267" y="388" type="curve" smooth="yes"/>
      <point x="237" y="353"/>
      <point x="214" y="316"/>
      <point x="229" y="216" type="curve" smooth="yes"/>
      <point x="238" y="150"/>
      <point x="149" y="137"/>
      <point x="139" y="204" type="curve" smooth="yes"/>
      <point x="120" y="338"/>
      <point x="157" y="399"/>
      <point x="199" y="448" type="curve" smooth="yes"/>
      <point x="230" y="483"/>
      <point x="274" y="515"/>
      <point x="273" y="597" type="curve" smooth="yes"/>
      <point x="272" y="664"/>
      <point x="362" y="665"/>
    </contour>
    <contour>
      <point x="442" y="299" type="curve" smooth="yes"/>
      <point x="323" y="299"/>
      <point x="225" y="299"/>
      <point x="145" y="299" type="curve" smooth="yes"/>
      <point x="78" y="299"/>
      <point x="78" y="389"/>
      <point x="145" y="389" type="curve" smooth="yes"/>
      <point x="264" y="389"/>
      <point x="362" y="389"/>
      <point x="442" y="389" type="curve" smooth="yes"/>
      <point x="510" y="389"/>
      <point x="510" y="299"/>
    </contour>
  </outline>
</glyph>
<glyph name="comma" format="2">
  <advance width="191"/>
  <unicode hex="002C"/>
  <outline>
    <contour>
      <point x="124" y="-189" type="curve" smooth="yes"/>
      <point x="158" y="-161"/>
      <point x="161" y="-103"/>
      <point x="126" y="-56" type="curve" smooth="yes"/>
      <point x="85" y="-2"/>
      <point x="157" y="52"/>
      <point x="198" y="-2" type="curve" smooth="yes"/>
      <point x="267" y="-93"/>
      <point x="248" y="-205"/>
      <point x="180" y="-259" type="curve" smooth="yes"/>
      <point x="128" y="-301"/>
      <point x="71" y="-231"/>
    </contour>
  </outline>
</glyph>
<glyph name="two" format="2">
  <advance width="357"/>
  <unicode hex="0032"/>
  <outline>
    <contour>
      <point x="134" y="567" type="curve" smooth="yes"/>
      <point x="189" y="568"/>
      <point x="222" y="577"/>
      <point x="283" y="568" type="curve" smooth="yes"/>
      <point x="346" y="558"/>
      <point x="421" y="498"/>
      <point x="421" y="382" type="curve" smooth="yes"/>
      <point x="421" y="300"/>
      <point x="390" y="245"/>
      <point x="329" y="148" type="curve" smooth="yes"/>
      <point x="286" y="82"/>
      <point x="269" y="24"/>
      <point x="229" y="-25" type="curve" smooth="yes"/>
      <point x="64" y="-225"/>
      <point x="137" y="29"/>
      <point x="149" y="29" type="curve" smooth="yes"/>
      <point x="215" y="29"/>
      <point x="284" y="-30"/>
      <point x="322" y="-30" type="curve" smooth="yes"/>
      <point x="324" y="-30"/>
      <point x="328" y="-37"/>
      <point x="328" y="-36" type="curve" smooth="yes"/>
      <point x="356" y="25"/>
      <point x="438" y="-13"/>
      <point x="410" y="-74" type="curve" smooth="yes"/>
      <point x="398" y="-99"/>
      <point x="371" y="-120"/>
      <point x="322" y="-120" type="curve" smooth="yes"/>
      <point x="255" y="-120"/>
      <point x="186" y="-61"/>
      <point x="149" y="-61" type="curve" smooth="yes"/>
      <point x="-26" y="-61"/>
      <point x="148" y="19"/>
      <point x="159" y="33" type="curve" smooth="yes"/>
      <point x="193" y="74"/>
      <point x="203" y="119"/>
      <point x="253" y="196" type="curve" smooth="yes"/>
      <point x="300" y="270"/>
      <point x="331" y="319"/>
      <point x="331" y="382" type="curve" smooth="yes"/>
      <point x="331" y="439"/>
      <point x="301" y="474"/>
      <point x="269" y="478" type="curve" smooth="yes"/>
      <point x="222" y="485"/>
      <point x="179" y="478"/>
      <point x="136" y="477" type="curve" smooth="yes"/>
      <point x="68" y="476"/>
      <point x="67" y="566"/>
    </contour>
  </outline>
</glyph>
<glyph name="four" format="2">
  <advance width="371"/>
  <unicode hex="0034"/>
  <outline>
    <contour>
      <point x="355" y="136" type="curve" smooth="yes"/>
      <point x="290" y="136"/>
      <point x="225" y="136"/>
      <point x="182" y="136" type="curve" smooth="yes"/>
      <point x="148" y="136"/>
      <point x="126" y="136"/>
      <point x="113" y="136" type="curve" smooth="yes"/>
      <point x="110" y="136"/>
      <point x="108" y="189"/>
      <point x="110" y="193" type="curve" smooth="yes"/>
      <point x="115" y="205"/>
      <point x="119" y="253"/>
      <point x="121" y="274" type="curve" smooth="yes"/>
      <point x="128" y="334"/>
      <point x="136" y="415"/>
      <point x="142" y="463" type="curve" smooth="yes"/>
      <point x="149" y="510"/>
      <point x="154" y="546"/>
      <point x="168" y="573" type="curve" smooth="yes"/>
      <point x="225" y="693"/>
      <point x="391" y="601"/>
      <point x="391" y="452" type="curve" smooth="yes"/>
      <point x="391" y="429"/>
      <point x="391" y="402"/>
      <point x="391" y="378" type="curve" smooth="yes"/>
      <point x="391" y="239"/>
      <point x="391" y="82"/>
      <point x="391" y="37" type="curve" smooth="yes"/>
      <point x="391" y="-41"/>
      <point x="376" y="-68"/>
      <point x="352" y="-86" type="curve" smooth="yes"/>
      <point x="298" y="-127"/>
      <point x="244" y="-55"/>
      <point x="298" y="-14" type="curve" smooth="yes"/>
      <point x="299" y="-13"/>
      <point x="301" y="32"/>
      <point x="301" y="37" type="curve" smooth="yes"/>
      <point x="301" y="104"/>
      <point x="301" y="285"/>
      <point x="301" y="378" type="curve" smooth="yes"/>
      <point x="301" y="413"/>
      <point x="301" y="436"/>
      <point x="301" y="452" type="curve" smooth="yes"/>
      <point x="301" y="483"/>
      <point x="261" y="558"/>
      <point x="248" y="533" type="curve" smooth="yes"/>
      <point x="240" y="517"/>
      <point x="235" y="479"/>
      <point x="232" y="451" type="curve" smooth="yes"/>
      <point x="226" y="405"/>
      <point x="218" y="325"/>
      <point x="211" y="264" type="curve" smooth="yes"/>
      <point x="205" y="213"/>
      <point x="204" y="182"/>
      <point x="192" y="157" type="curve" smooth="yes"/>
      <point x="116" y="-16"/>
      <point x="-14" y="226"/>
      <point x="113" y="226" type="curve" smooth="yes"/>
      <point x="132" y="226"/>
      <point x="159" y="226"/>
      <point x="182" y="226" type="curve" smooth="yes"/>
      <point x="247" y="226"/>
      <point x="312" y="226"/>
      <point x="355" y="226" type="curve" smooth="yes"/>
      <point x="423" y="226"/>
      <point x="423" y="136"/>
    </contour>
  </outline>
</glyph>
<glyph name="colon" format="2">
  <advance width="184"/>
  <unicode hex="003A"/>
  <outline>
    <contour>
      <point x="175" y="-124" type="curve" smooth="yes"/>
      <point x="103" y="-109"/>
      <point x="103" y="-7"/>
      <point x="175" y="8" type="curve" smooth="yes"/>
      <point x="241" y="22"/>
      <point x="259" y="-66"/>
      <point x="193" y="-80" type="curve" smooth="yes"/>
      <point x="191" y="-80"/>
      <point x="191" y="-36"/>
      <point x="193" y="-36" type="curve" smooth="yes"/>
      <point x="259" y="-50"/>
      <point x="241" y="-138"/>
    </contour>
    <contour>
      <point x="175" y="236" type="curve" smooth="yes"/>
      <point x="103" y="251"/>
      <point x="103" y="353"/>
      <point x="175" y="368" type="curve" smooth="yes"/>
      <point x="241" y="382"/>
      <point x="259" y="294"/>
      <point x="193" y="280" type="curve" smooth="yes"/>
      <point x="191" y="280"/>
      <point x="191" y="324"/>
      <point x="193" y="324" type="curve" smooth="yes"/>
      <point x="259" y="310"/>
      <point x="241" y="222"/>
    </contour>
  </outline>
</glyph>
<glyph name="equal" format="2">
  <advance width="346"/>
  <unicode hex="003D"/>
  <outline>
    <contour>
      <point x="409" y="279" type="curve" smooth="yes"/>
      <point x="357" y="217"/>
      <point x="264" y="204"/>
      <point x="123" y="267" type="curve" smooth="yes"/>
      <point x="61" y="294"/>
      <point x="97" y="376"/>
      <point x="159" y="349" type="curve" smooth="yes"/>
      <point x="240" y="313"/>
      <point x="310" y="301"/>
      <point x="341" y="337" type="curve" smooth="yes"/>
      <point x="384" y="389"/>
      <point x="453" y="331"/>
    </contour>
    <contour>
      <point x="409" y="39" type="curve" smooth="yes"/>
      <point x="357" y="-23"/>
      <point x="264" y="-36"/>
      <point x="123" y="27" type="curve" smooth="yes"/>
      <point x="61" y="54"/>
      <point x="97" y="136"/>
      <point x="159" y="109" type="curve" smooth="yes"/>
      <point x="240" y="73"/>
      <point x="310" y="61"/>
      <point x="341" y="97" type="curve" smooth="yes"/>
      <point x="384" y="149"/>
      <point x="453" y="91"/>
    </contour>
  </outline>
</glyph>
<glyph name="question" format="2">
  <advance width="361"/>
  <unicode hex="003F"/>
  <outline>
    <contour>
      <point x="132" y="566" type="curve" smooth="yes"/>
      <point x="184" y="558"/>
      <point x="219" y="568"/>
      <point x="255" y="568" type="curve" smooth="yes"/>
      <point x="355" y="568"/>
      <point x="432" y="496"/>
      <point x="432" y="389" type="curve" smooth="yes"/>
      <point x="432" y="318"/>
      <point x="397" y="249"/>
      <point x="331" y="217" type="curve" smooth="yes"/>
      <point x="273" y="190"/>
      <point x="254" y="168"/>
      <point x="228" y="155" type="curve" smooth="yes"/>
      <point x="168" y="126"/>
      <point x="129" y="207"/>
      <point x="190" y="237" type="curve" smooth="yes"/>
      <point x="210" y="246"/>
      <point x="220" y="265"/>
      <point x="293" y="299" type="curve" smooth="yes"/>
      <point x="326" y="315"/>
      <point x="342" y="352"/>
      <point x="342" y="389" type="curve" smooth="yes"/>
      <point x="342" y="444"/>
      <point x="307" y="478"/>
      <point x="255" y="478" type="curve" smooth="yes"/>
      <point x="225" y="478"/>
      <point x="184" y="468"/>
      <point x="120" y="476" type="curve" smooth="yes"/>
      <point x="53" y="486"/>
      <point x="65" y="575"/>
    </contour>
    <contour>
      <point x="200" y="-84" type="curve" smooth="yes"/>
      <point x="200" y="-67"/>
      <point x="200" y="-42"/>
      <point x="200" y="-30" type="curve" smooth="yes"/>
      <point x="200" y="38"/>
      <point x="290" y="37"/>
      <point x="290" y="-30" type="curve" smooth="yes"/>
      <point x="290" y="-48"/>
      <point x="290" y="-73"/>
      <point x="290" y="-84" type="curve" smooth="yes"/>
      <point x="290" y="-151"/>
      <point x="200" y="-151"/>
    </contour>
  </outline>
</glyph>
<glyph name="I" format="2">
  <advance width="190"/>
  <unicode hex="0049"/>
  <outline>
    <contour>
      <point x="124" y="-45" type="curve" smooth="yes"/>
      <point x="132" y="-22"/>
      <point x="135" y="15"/>
      <point x="135" y="51" type="curve" smooth="yes"/>
      <point x="135" y="192"/>
      <point x="135" y="292"/>
      <point x="135" y="387" type="curve" smooth="yes"/>
      <point x="135" y="426"/>
      <point x="132" y="478"/>
      <point x="122" y="531" type="curve" smooth="yes"/>
      <point x="109" y="598"/>
      <point x="197" y="615"/>
      <point x="210" y="549" type="curve" smooth="yes"/>
      <point x="222" y="488"/>
      <point x="225" y="430"/>
      <point x="225" y="387" type="curve" smooth="yes"/>
      <point x="225" y="246"/>
      <point x="225" y="146"/>
      <point x="225" y="51" type="curve" smooth="yes"/>
      <point x="225" y="1"/>
      <point x="220" y="-43"/>
      <point x="208" y="-75" type="curve" smooth="yes"/>
      <point x="186" y="-139"/>
      <point x="101" y="-108"/>
    </contour>
  </outline>
</glyph>
<glyph name="J" format="2">
  <advance width="316"/>
  <unicode hex="004A"/>
  <outline>
    <contour>
      <point x="148" y="4" type="curve" smooth="yes"/>
      <point x="176" y="-20"/>
      <point x="202" y="-34"/>
      <point x="219" y="-35" type="curve" smooth="yes"/>
      <point x="259" y="-37"/>
      <point x="274" y="21"/>
      <point x="274" y="84" type="curve" smooth="yes"/>
      <point x="274" y="202"/>
      <point x="274" y="267"/>
      <point x="274" y="346" type="curve" smooth="yes"/>
      <point x="274" y="401"/>
      <point x="270" y="470"/>
      <point x="254" y="540" type="curve" smooth="yes"/>
      <point x="239" y="606"/>
      <point x="327" y="626"/>
      <point x="342" y="560" type="curve" smooth="yes"/>
      <point x="360" y="482"/>
      <point x="364" y="407"/>
      <point x="364" y="346" type="curve" smooth="yes"/>
      <point x="364" y="228"/>
      <point x="364" y="163"/>
      <point x="364" y="84" type="curve" smooth="yes"/>
      <point x="364" y="-55"/>
      <point x="302" y="-129"/>
      <point x="215" y="-125" type="curve" smooth="yes"/>
      <point x="183" y="-124"/>
      <point x="143" y="-109"/>
      <point x="90" y="-64" type="curve" smooth="yes"/>
      <point x="38" y="-20"/>
      <point x="97" y="48"/>
    </contour>
  </outline>
</glyph>
<glyph name="O" format="2">
  <advance width="518"/>
  <unicode hex="004F"/>
  <outline>
    <contour>
      <point x="-1628.2616006312198" y="-84.7434104877277" type="curve" smooth="yes"/>
      <point x="-1656.6792487779992" y="-104.83596848518258"/>
      <point x="-1692.8660599999566" y="-105.72273807187653"/>
      <point x="-1731.383540158412" y="-71.7472908292965" type="curve" smooth="yes"/>
      <point x="-1785.5903025953082" y="-23.93266251536348"/>
      <point x="-1832.1599550609499" y="89.51497472895828"/>
      <point x="-1832.143727359358" y="221.00555404538204" type="curve" smooth="yes"/>
      <point x="-1832.1176474397232" y="432.3271464426882"/>
      <point x="-1727.3653008272827" y="569.9999958115105"/>
      <point x="-1590.5305248542386" y="569.9999958115105" type="curve" smooth="yes"/>
      <point x="-1454.2630313758093" y="569.9999958115105"/>
      <point x="-1351.794799520821" y="431.54942336957544"/>
      <point x="-1351.820784829773" y="220.99444683800846" type="curve" smooth="yes"/>
      <point x="-1351.8371789721464" y="88.15522337436516"/>
      <point x="-1381.6605028928354" y="-20.875602725769742"/>
      <point x="-1452.1902586995748" y="-70.74339258051651" type="curve" smooth="yes"/>
      <point x="-1487.981154808936" y="-96.04920663700226"/>
      <point x="-1529.2791756461957" y="-105.27725773450622"/>
      <point x="-1580.9899545347043" y="-91.47867433483017" type="curve" smooth="yes"/>
      <point x="-1646.207972845149" y="-74.07579849034649"/>
      <point x="-1623.0041383858375" y="12.881559256912961"/>
      <point x="-1557.7861200753928" y="-4.52131658757073" type="curve" smooth="yes"/>
      <point x="-1534.6781502493486" y="-10.687482630618355"/>
      <point x="-1520.1426705820356" y="-8.564995203481786"/>
      <point x="-1504.1488107887926" y="2.7434012316511485" type="curve" smooth="yes"/>
      <point x="-1457.7437559823472" y="35.55391496186755"/>
      <point x="-1441.8315706708172" y="133.60398325067658"/>
      <point x="-1441.8207841443837" y="221.00555404538204" type="curve" smooth="yes"/>
      <point x="-1441.8032984980696" y="362.6890666796336"/>
      <point x="-1498.8354367023123" y="479.99999581151053"/>
      <point x="-1590.5305248542386" y="479.99999581151053" type="curve" smooth="yes"/>
      <point x="-1683.1602383727563" y="479.99999581151053"/>
      <point x="-1742.1260733552347" y="364.04769061205934"/>
      <point x="-1742.1437280447474" y="220.99444683800846" type="curve" smooth="yes"/>
      <point x="-1742.1553042195508" y="127.19447630247107"/>
      <point x="-1710.5168769223728" y="29.856288628949955"/>
      <point x="-1671.8480023471684" y="-4.252700397721817" type="curve" smooth="yes"/>
      <point x="-1670.4022001539631" y="-5.528011657346914"/>
      <point x="-1681.2867937251192" y="-12.010779938387492"/>
      <point x="-1680.2201014636487" y="-11.25658043467321" type="curve" smooth="yes"/>
      <point x="-1625.1049789238577" y="27.71229518964826"/>
      <point x="-1573.146478091429" y="-45.77453486340623"/>
    </contour>
  </outline>
</glyph>
<glyph name="Q" format="2">
  <advance width="518"/>
  <unicode hex="0051"/>
  <outline>
    <contour>
      <point x="442" y="-168" type="curve" smooth="yes"/>
      <point x="428" y="-137"/>
      <point x="398" y="-65"/>
      <point x="370" y="-3" type="curve" smooth="yes"/>
      <point x="352" y="37"/>
      <point x="337" y="72"/>
      <point x="328" y="93" type="curve" smooth="yes"/>
      <point x="300" y="154"/>
      <point x="382" y="191"/>
      <point x="410" y="129" type="curve" smooth="yes"/>
      <point x="419" y="110"/>
      <point x="434" y="75"/>
      <point x="452" y="35" type="curve" smooth="yes"/>
      <point x="480" y="-27"/>
      <point x="510" y="-99"/>
      <point x="524" y="-130" type="curve" smooth="yes"/>
      <point x="552" y="-192"/>
      <point x="470" y="-229"/>
    </contour>
    <contour>
      <point x="371" y="-127" type="curve" smooth="yes"/>
      <point x="229" y="-149"/>
      <point x="104" y="-12"/>
      <point x="104" y="221" type="curve" smooth="yes"/>
      <point x="104" y="432"/>
      <point x="208" y="570"/>
      <point x="345" y="570" type="curve" smooth="yes"/>
      <point x="484" y="570"/>
      <point x="588" y="425"/>
      <point x="570" y="237" type="curve" smooth="yes"/>
      <point x="561" y="154"/>
      <point x="528" y="92"/>
      <point x="476" y="55" type="curve" smooth="yes"/>
      <point x="399" y="2"/>
      <point x="311" y="53"/>
      <point x="280" y="126" type="curve" smooth="yes"/>
      <point x="271" y="146"/>
      <point x="257" y="180"/>
      <point x="239" y="220" type="curve" smooth="yes"/>
      <point x="211" y="281"/>
      <point x="293" y="318"/>
      <point x="321" y="256" type="curve" smooth="yes"/>
      <point x="339" y="216"/>
      <point x="353" y="182"/>
      <point x="362" y="162" type="curve" smooth="yes"/>
      <point x="373" y="138"/>
      <point x="400" y="112"/>
      <point x="424" y="129" type="curve" smooth="yes"/>
      <point x="457" y="152"/>
      <point x="475" y="194"/>
      <point x="480" y="245" type="curve" smooth="yes"/>
      <point x="492" y="368"/>
      <point x="435" y="480"/>
      <point x="345" y="480" type="curve" smooth="yes"/>
      <point x="253" y="480"/>
      <point x="194" y="364"/>
      <point x="194" y="221" type="curve" smooth="yes"/>
      <point x="194" y="66"/>
      <point x="263" y="-53"/>
      <point x="357" y="-39" type="curve" smooth="yes"/>
      <point x="424" y="-28"/>
      <point x="437" y="-117"/>
    </contour>
  </outline>
</glyph>
<glyph name="T" format="2">
  <advance width="352"/>
  <unicode hex="0054"/>
  <outline>
    <contour>
      <point x="384" y="470" type="curve" smooth="yes"/>
      <point x="306" y="470"/>
      <point x="239" y="470"/>
      <point x="187" y="470" type="curve" smooth="yes"/>
      <point x="39" y="470"/>
      <point x="-40" y="682"/>
      <point x="93" y="682" type="curve" smooth="yes"/>
      <point x="165" y="682"/>
      <point x="259" y="568"/>
      <point x="287" y="417" type="curve" smooth="yes"/>
      <point x="310" y="299"/>
      <point x="307" y="157"/>
      <point x="307" y="80" type="curve" smooth="yes"/>
      <point x="307" y="-27"/>
      <point x="298" y="-63"/>
      <point x="285" y="-84" type="curve" smooth="yes"/>
      <point x="249" y="-141"/>
      <point x="173" y="-93"/>
      <point x="209" y="-36" type="curve" smooth="yes"/>
      <point x="214" y="-28"/>
      <point x="217" y="36"/>
      <point x="217" y="80" type="curve" smooth="yes"/>
      <point x="217" y="153"/>
      <point x="220" y="289"/>
      <point x="199" y="401" type="curve" smooth="yes"/>
      <point x="186" y="468"/>
      <point x="125" y="592"/>
      <point x="93" y="592" type="curve" smooth="yes"/>
      <point x="88" y="592"/>
      <point x="181" y="560"/>
      <point x="187" y="560" type="curve" smooth="yes"/>
      <point x="265" y="560"/>
      <point x="332" y="560"/>
      <point x="384" y="560" type="curve" smooth="yes"/>
      <point x="452" y="560"/>
      <point x="452" y="470"/>
    </contour>
  </outline>
</glyph>
<glyph name="U" format="2">
  <advance width="472"/>
  <unicode hex="0055"/>
  <outline>
    <contour>
      <point x="188" y="564" type="curve" smooth="yes"/>
      <point x="211" y="493"/>
      <point x="211" y="422"/>
      <point x="211" y="384" type="curve" smooth="yes"/>
      <point x="211" y="276"/>
      <point x="211" y="221"/>
      <point x="211" y="148" type="curve" smooth="yes"/>
      <point x="211" y="58"/>
      <point x="252" y="-41"/>
      <point x="306" y="-31" type="curve" smooth="yes"/>
      <point x="372" y="-19"/>
      <point x="431" y="40"/>
      <point x="431" y="148" type="curve" smooth="yes"/>
      <point x="431" y="256"/>
      <point x="431" y="311"/>
      <point x="431" y="384" type="curve" smooth="yes"/>
      <point x="431" y="416"/>
      <point x="431" y="477"/>
      <point x="412" y="536" type="curve" smooth="yes"/>
      <point x="391" y="600"/>
      <point x="477" y="628"/>
      <point x="498" y="564" type="curve" smooth="yes"/>
      <point x="521" y="493"/>
      <point x="521" y="422"/>
      <point x="521" y="384" type="curve" smooth="yes"/>
      <point x="521" y="276"/>
      <point x="521" y="221"/>
      <point x="521" y="148" type="curve" smooth="yes"/>
      <point x="521" y="-14"/>
      <point x="422" y="-101"/>
      <point x="322" y="-119" type="curve" smooth="yes"/>
      <point x="218" y="-139"/>
      <point x="121" y="-27"/>
      <point x="121" y="148" type="curve" smooth="yes"/>
      <point x="121" y="256"/>
      <point x="121" y="311"/>
      <point x="121" y="384" type="curve" smooth="yes"/>
      <point x="121" y="416"/>
      <point x="121" y="477"/>
      <point x="102" y="536" type="curve" smooth="yes"/>
      <point x="81" y="600"/>
      <point x="167" y="628"/>
    </contour>
  </outline>
</glyph>
<glyph name="bracketleft" format="2">
  <advance width="304"/>
  <unicode hex="005B"/>
  <outline>
    <contour>
      <point x="244" y="678" type="curve" smooth="yes"/>
      <point x="112" y="678" type="line"/>
      <point x="157" y="723" type="line"/>
      <point x="157" y="-113" type="line"/>
      <point x="112" y="-68" type="line"/>
      <point x="244" y="-68" type="line" smooth="yes"/>
      <point x="312" y="-68"/>
      <point x="312" y="-158"/>
      <point x="244" y="-158" type="curve" smooth="yes"/>
      <point x="112" y="-158" type="line" smooth="yes"/>
      <point x="87" y="-158"/>
      <point x="67" y="-138"/>
      <point x="67" y="-113" type="curve"/>
      <point x="67" y="723" type="line"/>
      <point x="67" y="748"/>
      <point x="87" y="768"/>
      <point x="112" y="768" type="curve" smooth="yes"/>
      <point x="244" y="768" type="line" smooth="yes"/>
      <point x="312" y="768"/>
      <point x="312" y="678"/>
    </contour>
  </outline>
</glyph>
<glyph name="asciicircum" format="2">
  <advance width="396"/>
  <unicode hex="005E"/>
  <outline>
    <contour>
      <point x="122" y="198" type="curve" smooth="yes"/>
      <point x="144" y="263"/>
      <point x="169" y="330"/>
      <point x="197" y="417" type="curve" smooth="yes"/>
      <point x="253" y="584"/>
      <point x="308" y="589"/>
      <point x="367" y="415" type="curve" smooth="yes"/>
      <point x="415" y="270"/>
      <point x="416" y="244"/>
      <point x="395" y="216" type="curve" smooth="yes"/>
      <point x="355" y="162"/>
      <point x="283" y="216"/>
      <point x="323" y="270" type="curve" smooth="yes"/>
      <point x="324" y="271"/>
      <point x="283" y="380"/>
      <point x="281" y="387" type="curve" smooth="yes"/>
      <point x="278" y="396"/>
      <point x="286" y="398"/>
      <point x="283" y="389" type="curve" smooth="yes"/>
      <point x="255" y="302"/>
      <point x="230" y="235"/>
      <point x="206" y="168" type="curve" smooth="yes"/>
      <point x="184" y="104"/>
      <point x="99" y="134"/>
    </contour>
  </outline>
</glyph>
<glyph name="grave" format="2">
  <advance width="288"/>
  <unicode hex="0060"/>
  <outline>
    <contour>
      <point x="221" y="460" type="curve" smooth="yes"/>
      <point x="199" y="495"/>
      <point x="177" y="531"/>
      <point x="142" y="586" type="curve" smooth="yes"/>
      <point x="106" y="643"/>
      <point x="182" y="691"/>
      <point x="218" y="634" type="curve" smooth="yes"/>
      <point x="253" y="579"/>
      <point x="275" y="543"/>
      <point x="297" y="508" type="curve" smooth="yes"/>
      <point x="333" y="451"/>
      <point x="257" y="403"/>
    </contour>
  </outline>
</glyph>
<glyph name="e" format="2">
  <advance width="388"/>
  <unicode hex="0065"/>
  <outline>
    <contour>
      <point x="172" y="238" type="curve" smooth="yes"/>
      <point x="234" y="200"/>
      <point x="224" y="244"/>
      <point x="295" y="244" type="curve" smooth="yes"/>
      <point x="299" y="244"/>
      <point x="364" y="192"/>
      <point x="363" y="196" type="curve" smooth="yes"/>
      <point x="355" y="254"/>
      <point x="327" y="298"/>
      <point x="285" y="298" type="curve" smooth="yes"/>
      <point x="226" y="298"/>
      <point x="190" y="221"/>
      <point x="189" y="128" type="curve"/>
      <point x="189" y="28"/>
      <point x="229" y="-41"/>
      <point x="291" y="-41" type="curve" smooth="yes"/>
      <point x="312" y="-41"/>
      <point x="329" y="-34"/>
      <point x="340" y="3" type="curve" smooth="yes"/>
      <point x="359" y="67"/>
      <point x="445" y="42"/>
      <point x="426" y="-23" type="curve" smooth="yes"/>
      <point x="401" y="-108"/>
      <point x="340" y="-131"/>
      <point x="291" y="-131" type="curve" smooth="yes"/>
      <point x="188" y="-131"/>
      <point x="99" y="-40"/>
      <point x="99" y="128" type="curve" smooth="yes"/>
      <point x="100" y="291"/>
      <point x="183" y="388"/>
      <point x="285" y="388" type="curve" smooth="yes"/>
      <point x="366" y="388"/>
      <point x="437" y="322"/>
      <point x="453" y="208" type="curve" smooth="yes"/>
      <point x="469" y="87"/>
      <point x="410" y="154"/>
      <point x="295" y="154" type="curve" smooth="yes"/>
      <point x="253" y="154"/>
      <point x="230" y="97"/>
      <point x="126" y="160" type="curve" smooth="yes"/>
      <point x="68" y="195"/>
      <point x="114" y="272"/>
    </contour>
  </outline>
</glyph>
<glyph name="h" format="2">
  <advance width="402"/>
  <unicode hex="0068"/>
  <outline>
    <contour>
      <point x="368" y="-13" type="curve" smooth="yes"/>
      <point x="369" y="-12"/>
      <point x="370" y="52"/>
      <point x="370" y="55" type="curve" smooth="yes"/>
      <point x="370" y="103"/>
      <point x="370" y="142"/>
      <point x="370" y="173" type="curve" smooth="yes"/>
      <point x="370" y="264"/>
      <point x="363" y="269"/>
      <point x="287" y="302" type="curve" smooth="yes"/>
      <point x="204" y="337"/>
      <point x="124" y="351"/>
      <point x="124" y="258" type="curve" smooth="yes"/>
      <point x="124" y="190"/>
      <point x="124" y="169"/>
      <point x="124" y="130" type="curve" smooth="yes"/>
      <point x="124" y="121"/>
      <point x="118" y="1"/>
      <point x="118" y="10" type="curve" smooth="yes"/>
      <point x="119" y="79"/>
      <point x="119" y="397"/>
      <point x="119" y="423" type="curve" smooth="yes"/>
      <point x="119" y="484"/>
      <point x="119" y="525"/>
      <point x="99" y="590" type="curve" smooth="yes"/>
      <point x="79" y="654"/>
      <point x="165" y="681"/>
      <point x="185" y="616" type="curve" smooth="yes"/>
      <point x="209" y="541"/>
      <point x="209" y="494"/>
      <point x="209" y="423" type="curve" smooth="yes"/>
      <point x="209" y="397"/>
      <point x="209" y="79"/>
      <point x="208" y="10" type="curve" smooth="yes"/>
      <point x="208" y="-182"/>
      <point x="34" y="-62"/>
      <point x="34" y="130" type="curve" smooth="yes"/>
      <point x="34" y="188"/>
      <point x="34" y="212"/>
      <point x="34" y="258" type="curve" smooth="yes"/>
      <point x="34" y="424"/>
      <point x="174" y="448"/>
      <point x="323" y="384" type="curve" smooth="yes"/>
      <point x="432" y="337"/>
      <point x="460" y="304"/>
      <point x="460" y="173" type="curve" smooth="yes"/>
      <point x="460" y="127"/>
      <point x="460" y="87"/>
      <point x="460" y="55" type="curve" smooth="yes"/>
      <point x="460" y="-19"/>
      <point x="455" y="-62"/>
      <point x="418" y="-87" type="curve" smooth="yes"/>
      <point x="363" y="-125"/>
      <point x="312" y="-51"/>
    </contour>
  </outline>
</glyph>
<glyph name="i" format="2">
  <advance width="163"/>
  <unicode hex="0069"/>
  <outline>
    <contour>
      <point x="110" y="-44" type="curve" smooth="yes"/>
      <point x="118" y="-22"/>
      <point x="121" y="10"/>
      <point x="121" y="45" type="curve" smooth="yes"/>
      <point x="121" y="113"/>
      <point x="121" y="167"/>
      <point x="121" y="213" type="curve" smooth="yes"/>
      <point x="121" y="253"/>
      <point x="118" y="295"/>
      <point x="108" y="350" type="curve" smooth="yes"/>
      <point x="95" y="416"/>
      <point x="184" y="433"/>
      <point x="196" y="366" type="curve" smooth="yes"/>
      <point x="208" y="305"/>
      <point x="211" y="257"/>
      <point x="211" y="213" type="curve" smooth="yes"/>
      <point x="211" y="145"/>
      <point x="211" y="91"/>
      <point x="211" y="45" type="curve" smooth="yes"/>
      <point x="211" y="-4"/>
      <point x="206" y="-44"/>
      <point x="194" y="-76" type="curve" smooth="yes"/>
      <point x="171" y="-139"/>
      <point x="86" y="-108"/>
    </contour>
    <contour>
      <point x="137" y="568" type="curve" smooth="yes"/>
      <point x="137" y="568"/>
      <point x="116" y="558"/>
      <point x="116" y="559" type="curve" smooth="yes"/>
      <point x="97" y="624"/>
      <point x="183" y="649"/>
      <point x="202" y="585" type="curve" smooth="yes"/>
      <point x="220" y="524"/>
      <point x="199" y="500"/>
      <point x="181" y="490" type="curve" smooth="yes"/>
      <point x="123" y="456"/>
      <point x="78" y="535"/>
    </contour>
  </outline>
</glyph>
<glyph name="j" format="2">
  <advance width="173"/>
  <unicode hex="006A"/>
  <outline>
    <contour>
      <point x="200" y="376" type="curve" smooth="yes"/>
      <point x="215" y="311"/>
      <point x="221" y="238"/>
      <point x="221" y="158" type="curve" smooth="yes"/>
      <point x="221" y="74"/>
      <point x="221" y="-42"/>
      <point x="221" y="-137" type="curve" smooth="yes"/>
      <point x="221" y="-284"/>
      <point x="90" y="-263"/>
      <point x="18" y="-224" type="curve" smooth="yes"/>
      <point x="-42" y="-192"/>
      <point x="1" y="-112"/>
      <point x="60" y="-144" type="curve" smooth="yes"/>
      <point x="85" y="-157"/>
      <point x="131" y="-186"/>
      <point x="131" y="-137" type="curve" smooth="yes"/>
      <point x="131" y="4"/>
      <point x="131" y="102"/>
      <point x="131" y="158" type="curve" smooth="yes"/>
      <point x="131" y="230"/>
      <point x="125" y="297"/>
      <point x="112" y="356" type="curve" smooth="yes"/>
      <point x="97" y="422"/>
      <point x="185" y="442"/>
    </contour>
    <contour>
      <point x="135" y="537" type="curve" smooth="yes"/>
      <point x="135" y="538"/>
      <point x="132" y="552"/>
      <point x="132" y="553" type="curve" smooth="yes"/>
      <point x="119" y="619"/>
      <point x="207" y="637"/>
      <point x="220" y="571" type="curve" smooth="yes"/>
      <point x="227" y="537"/>
      <point x="224" y="516"/>
      <point x="217" y="501" type="curve" smooth="yes"/>
      <point x="190" y="439"/>
      <point x="107" y="476"/>
    </contour>
  </outline>
</glyph>
<glyph name="p" format="2">
  <advance width="412"/>
  <unicode hex="0070"/>
  <outline>
    <contour>
      <point x="116" y="-178" type="curve" smooth="yes"/>
      <point x="117" y="-177"/>
      <point x="118" y="-114"/>
      <point x="118" y="-111" type="curve" smooth="yes"/>
      <point x="118" y="-14"/>
      <point x="118" y="65"/>
      <point x="118" y="130" type="curve" smooth="yes"/>
      <point x="118" y="288"/>
      <point x="197" y="388"/>
      <point x="300" y="388" type="curve" smooth="yes"/>
      <point x="401" y="388"/>
      <point x="484" y="286"/>
      <point x="484" y="128" type="curve" smooth="yes"/>
      <point x="484" y="-30"/>
      <point x="366" y="-105"/>
      <point x="236" y="-58" type="curve" smooth="yes"/>
      <point x="104" y="-12"/>
      <point x="13" y="139"/>
      <point x="41" y="247" type="curve" smooth="yes"/>
      <point x="56" y="300"/>
      <point x="53" y="361"/>
      <point x="34" y="441" type="curve" smooth="yes"/>
      <point x="19" y="506"/>
      <point x="106" y="527"/>
      <point x="122" y="461" type="curve" smooth="yes"/>
      <point x="145" y="363"/>
      <point x="146" y="288"/>
      <point x="129" y="225" type="curve" smooth="yes"/>
      <point x="111" y="158"/>
      <point x="185" y="55"/>
      <point x="266" y="26" type="curve" smooth="yes"/>
      <point x="342" y="-1"/>
      <point x="394" y="37"/>
      <point x="394" y="128" type="curve" smooth="yes"/>
      <point x="394" y="217"/>
      <point x="357" y="298"/>
      <point x="300" y="298" type="curve" smooth="yes"/>
      <point x="242" y="298"/>
      <point x="208" y="219"/>
      <point x="208" y="130" type="curve" smooth="yes"/>
      <point x="208" y="33"/>
      <point x="208" y="-46"/>
      <point x="208" y="-111" type="curve" smooth="yes"/>
      <point x="208" y="-185"/>
      <point x="203" y="-227"/>
      <point x="168" y="-252" type="curve" smooth="yes"/>
      <point x="113" y="-291"/>
      <point x="61" y="-218"/>
    </contour>
  </outline>
</glyph>
<glyph name="y" format="2">
  <advance width="346"/>
  <unicode hex="0079"/>
  <outline>
    <contour>
      <point x="73" y="-111" type="curve" smooth="yes"/>
      <point x="83" y="-81"/>
      <point x="93" y="-47"/>
      <point x="103" y="-16" type="curve" smooth="yes"/>
      <point x="109" y="2"/>
      <point x="114" y="21"/>
      <point x="119" y="36" type="curve" smooth="yes"/>
      <point x="136" y="86"/>
      <point x="141" y="88"/>
      <point x="145" y="129" type="curve" smooth="yes"/>
      <point x="147" y="142"/>
      <point x="101" y="283"/>
      <point x="88" y="324" type="curve" smooth="yes"/>
      <point x="68" y="389"/>
      <point x="153" y="416"/>
      <point x="174" y="352" type="curve" smooth="yes"/>
      <point x="211" y="236"/>
      <point x="239" y="153"/>
      <point x="235" y="119" type="curve" smooth="yes"/>
      <point x="229" y="68"/>
      <point x="226" y="71"/>
      <point x="205" y="8" type="curve" smooth="yes"/>
      <point x="200" y="-7"/>
      <point x="195" y="-24"/>
      <point x="189" y="-44" type="curve" smooth="yes"/>
      <point x="179" y="-74"/>
      <point x="169" y="-109"/>
      <point x="159" y="-139" type="curve" smooth="yes"/>
      <point x="137" y="-203"/>
      <point x="52" y="-175"/>
    </contour>
    <contour>
      <point x="417" y="357" type="curve" smooth="yes"/>
      <point x="416" y="284"/>
      <point x="396" y="220"/>
      <point x="384" y="183" type="curve" smooth="yes"/>
      <point x="354" y="86"/>
      <point x="310" y="-49"/>
      <point x="290" y="-112" type="curve" smooth="yes"/>
      <point x="284" y="-130"/>
      <point x="279" y="-148"/>
      <point x="273" y="-168" type="curve" smooth="yes"/>
      <point x="263" y="-198"/>
      <point x="253" y="-228"/>
      <point x="244" y="-258" type="curve" smooth="yes"/>
      <point x="225" y="-323"/>
      <point x="139" y="-297"/>
      <point x="158" y="-232" type="curve" smooth="yes"/>
      <point x="167" y="-202"/>
      <point x="177" y="-170"/>
      <point x="187" y="-140" type="curve" smooth="yes"/>
      <point x="193" y="-122"/>
      <point x="198" y="-104"/>
      <point x="204" y="-84" type="curve" smooth="yes"/>
      <point x="224" y="-21"/>
      <point x="268" y="112"/>
      <point x="298" y="211" type="curve" smooth="yes"/>
      <point x="308" y="242"/>
      <point x="326" y="298"/>
      <point x="327" y="359" type="curve" smooth="yes"/>
      <point x="328" y="426"/>
      <point x="418" y="425"/>
    </contour>
  </outline>
</glyph>
<glyph name="braceright" format="2">
  <advance width="330"/>
  <unicode hex="007D"/>
  <outline>
    <contour>
      <point x="164" y="-187" type="curve" smooth="yes"/>
      <point x="187" y="-198"/>
      <point x="208" y="-201"/>
      <point x="223" y="-194" type="curve" smooth="yes"/>
      <point x="241" y="-186"/>
      <point x="249" y="-160"/>
      <point x="249" y="-130" type="curve" smooth="yes"/>
      <point x="249" y="-66"/>
      <point x="208" y="23"/>
      <point x="208" y="100" type="curve" smooth="yes"/>
      <point x="208" y="174"/>
      <point x="246" y="229"/>
      <point x="326" y="229" type="curve" smooth="yes"/>
      <point x="330" y="229"/>
      <point x="245" y="259"/>
      <point x="241" y="259" type="curve" smooth="yes"/>
      <point x="123" y="259"/>
      <point x="136" y="330"/>
      <point x="191" y="363" type="curve" smooth="yes"/>
      <point x="213" y="376"/>
      <point x="249" y="449"/>
      <point x="249" y="499" type="curve" smooth="yes"/>
      <point x="249" y="531"/>
      <point x="240" y="556"/>
      <point x="220" y="564" type="curve" smooth="yes"/>
      <point x="206" y="569"/>
      <point x="185" y="566"/>
      <point x="164" y="556" type="curve" smooth="yes"/>
      <point x="102" y="528"/>
      <point x="65" y="610"/>
      <point x="126" y="638" type="curve" smooth="yes"/>
      <point x="175" y="660"/>
      <point x="219" y="661"/>
      <point x="252" y="648" type="curve" smooth="yes"/>
      <point x="303" y="628"/>
      <point x="339" y="578"/>
      <point x="339" y="499" type="curve" smooth="yes"/>
      <point x="339" y="404"/>
      <point x="279" y="310"/>
      <point x="237" y="285" type="curve" smooth="yes"/>
      <point x="235" y="284"/>
      <point x="237" y="349"/>
      <point x="241" y="349" type="curve" smooth="yes"/>
      <point x="359" y="349"/>
      <point x="442" y="139"/>
      <point x="326" y="139" type="curve" smooth="yes"/>
      <point x="300" y="139"/>
      <point x="298" y="124"/>
      <point x="298" y="100" type="curve" smooth="yes"/>
      <point x="298" y="38"/>
      <point x="339" y="-50"/>
      <point x="339" y="-130" type="curve" smooth="yes"/>
      <point x="339" y="-205"/>
      <point x="306" y="-255"/>
      <point x="261" y="-276" type="curve" smooth="yes"/>
      <point x="225" y="-293"/>
      <point x="178" y="-294"/>
      <point x="126" y="-269" type="curve" smooth="yes"/>
      <point x="65" y="-240"/>
      <point x="103" y="-158"/>
    </contour>
  </outline>
</glyph>
<glyph name="asciitilde" format="2">
  <advance width="451"/>
  <unicode hex="007E"/>
  <outline>
    <contour>
      <point x="469" y="325" type="curve" smooth="yes"/>
      <point x="501" y="138"/>
      <point x="462" y="54"/>
      <point x="387" y="54" type="curve" smooth="yes"/>
      <point x="338" y="54"/>
      <point x="309" y="91"/>
      <point x="272" y="157" type="curve" smooth="yes"/>
      <point x="270" y="160"/>
      <point x="235" y="219"/>
      <point x="233" y="219" type="curve" smooth="yes"/>
      <point x="205" y="219"/>
      <point x="180" y="168"/>
      <point x="168" y="132" type="curve" smooth="yes"/>
      <point x="146" y="68"/>
      <point x="61" y="96"/>
      <point x="82" y="160" type="curve" smooth="yes"/>
      <point x="113" y="250"/>
      <point x="164" y="309"/>
      <point x="233" y="309" type="curve" smooth="yes"/>
      <point x="284" y="309"/>
      <point x="311" y="270"/>
      <point x="350" y="201" type="curve" smooth="yes"/>
      <point x="352" y="198"/>
      <point x="384" y="144"/>
      <point x="387" y="144" type="curve" smooth="yes"/>
      <point x="397" y="144"/>
      <point x="385" y="286"/>
      <point x="381" y="309" type="curve" smooth="yes"/>
      <point x="369" y="376"/>
      <point x="458" y="391"/>
    </contour>
  </outline>
</glyph>
<glyph name="cent" format="2">
  <advance width="335"/>
  <unicode hex="00A2"/>
  <outline>
    <contour>
      <point x="257" y="618" type="curve" smooth="yes"/>
      <point x="256" y="597"/>
      <point x="256" y="513"/>
      <point x="262" y="510" type="curve" smooth="yes"/>
      <point x="388" y="437"/>
      <point x="378" y="349"/>
      <point x="303" y="339" type="curve" smooth="yes"/>
      <point x="291" y="338"/>
      <point x="274" y="335"/>
      <point x="254" y="327" type="curve" smooth="yes"/>
      <point x="221" y="313"/>
      <point x="194" y="285"/>
      <point x="194" y="194" type="curve" smooth="yes"/>
      <point x="194" y="119"/>
      <point x="222" y="74"/>
      <point x="255" y="60" type="curve" smooth="yes"/>
      <point x="267" y="55"/>
      <point x="280" y="54"/>
      <point x="290" y="57" type="curve" smooth="yes"/>
      <point x="295" y="58"/>
      <point x="262" y="56"/>
      <point x="257" y="55" type="curve" smooth="yes"/>
      <point x="242" y="49"/>
      <point x="234" y="19"/>
      <point x="231" y="-33" type="curve" smooth="yes"/>
      <point x="227" y="-101"/>
      <point x="137" y="-96"/>
      <point x="141" y="-29" type="curve" smooth="yes"/>
      <point x="148" y="95"/>
      <point x="190" y="126"/>
      <point x="227" y="139" type="curve" smooth="yes"/>
      <point x="347" y="181"/>
      <point x="442" y="11"/>
      <point x="318" y="-29" type="curve" smooth="yes"/>
      <point x="290" y="-38"/>
      <point x="255" y="-37"/>
      <point x="219" y="-22" type="curve" smooth="yes"/>
      <point x="164" y="1"/>
      <point x="104" y="68"/>
      <point x="104" y="194" type="curve" smooth="yes"/>
      <point x="104" y="338"/>
      <point x="166" y="387"/>
      <point x="220" y="411" type="curve" smooth="yes"/>
      <point x="248" y="422"/>
      <point x="273" y="426"/>
      <point x="291" y="429" type="curve" smooth="yes"/>
      <point x="294" y="429"/>
      <point x="221" y="429"/>
      <point x="216" y="432" type="curve" smooth="yes"/>
      <point x="181" y="453"/>
      <point x="161" y="492"/>
      <point x="167" y="622" type="curve" smooth="yes"/>
      <point x="170" y="689"/>
      <point x="260" y="685"/>
    </contour>
  </outline>
</glyph>
<glyph name="brokenbar" format="2">
  <advance width="223"/>
  <unicode hex="00A6"/>
  <outline>
    <contour>
      <point x="212" y="161" type="curve" smooth="yes"/>
      <point x="242" y="41"/>
      <point x="242" y="-89"/>
      <point x="242" y="-240" type="curve" smooth="yes"/>
      <point x="242" y="-307"/>
      <point x="152" y="-307"/>
      <point x="152" y="-240" type="curve" smooth="yes"/>
      <point x="152" y="-99"/>
      <point x="152" y="27"/>
      <point x="124" y="139" type="curve" smooth="yes"/>
      <point x="108" y="205"/>
      <point x="195" y="226"/>
    </contour>
    <contour>
      <point x="242" y="610" type="curve" smooth="yes"/>
      <point x="242" y="434"/>
      <point x="241" y="331"/>
      <point x="206" y="276" type="curve" smooth="yes"/>
      <point x="170" y="219"/>
      <point x="94" y="267"/>
      <point x="130" y="324" type="curve" smooth="yes"/>
      <point x="153" y="360"/>
      <point x="152" y="496"/>
      <point x="152" y="610" type="curve" smooth="yes"/>
      <point x="152" y="678"/>
      <point x="242" y="678"/>
    </contour>
  </outline>
</glyph>
<glyph name="guillemetleft" format="2">
  <advance width="451"/>
  <unicode hex="00AB"/>
  <outline>
    <contour>
      <point x="233" y="432" type="curve" smooth="yes"/>
      <point x="94" y="236" type="line"/>
      <point x="94" y="288" type="line"/>
      <point x="233" y="90" type="line" smooth="yes"/>
      <point x="272" y="35"/>
      <point x="198" y="-17"/>
      <point x="159" y="38" type="curve" smooth="yes"/>
      <point x="20" y="236" type="line" smooth="yes"/>
      <point x="9" y="252"/>
      <point x="9" y="273"/>
      <point x="20" y="288" type="curve" smooth="yes"/>
      <point x="159" y="484" type="line" smooth="yes"/>
      <point x="198" y="539"/>
      <point x="272" y="487"/>
    </contour>
    <contour>
      <point x="417" y="432" type="curve" smooth="yes"/>
      <point x="278" y="236" type="line"/>
      <point x="278" y="288" type="line"/>
      <point x="417" y="90" type="line" smooth="yes"/>
      <point x="456" y="35"/>
      <point x="382" y="-17"/>
      <point x="343" y="38" type="curve" smooth="yes"/>
      <point x="204" y="236" type="line" smooth="yes"/>
      <point x="193" y="252"/>
      <point x="193" y="273"/>
      <point x="204" y="288" type="curve" smooth="yes"/>
      <point x="343" y="484" type="line" smooth="yes"/>
      <point x="382" y="539"/>
      <point x="456" y="487"/>
    </contour>
  </outline>
</glyph>
<glyph name="logicalnot" format="2">
  <advance width="346"/>
  <unicode hex="00AC"/>
  <outline>
    <contour>
      <point x="138" y="339" type="curve" smooth="yes"/>
      <point x="200" y="312"/>
      <point x="243" y="313"/>
      <point x="287" y="313" type="curve" smooth="yes"/>
      <point x="399" y="313"/>
      <point x="370" y="362"/>
      <point x="370" y="235" type="curve" smooth="yes"/>
      <point x="370" y="190"/>
      <point x="370" y="154"/>
      <point x="370" y="124" type="curve" smooth="yes"/>
      <point x="370" y="56"/>
      <point x="280" y="57"/>
      <point x="280" y="124" type="curve" smooth="yes"/>
      <point x="280" y="169"/>
      <point x="280" y="205"/>
      <point x="280" y="235" type="curve" smooth="yes"/>
      <point x="280" y="241"/>
      <point x="293" y="223"/>
      <point x="287" y="223" type="curve" smooth="yes"/>
      <point x="233" y="223"/>
      <point x="178" y="224"/>
      <point x="102" y="257" type="curve" smooth="yes"/>
      <point x="40" y="284"/>
      <point x="76" y="366"/>
    </contour>
  </outline>
</glyph>
<glyph name="registered" format="2">
  <advance width="456"/>
  <unicode hex="00AE"/>
  <outline>
    <contour>
      <point x="236" y="26" type="curve" smooth="yes"/>
      <point x="159" y="37"/>
      <point x="95" y="125"/>
      <point x="95" y="278" type="curve" smooth="yes"/>
      <point x="95" y="451"/>
      <point x="190" y="569"/>
      <point x="313" y="569" type="curve" smooth="yes"/>
      <point x="435" y="569"/>
      <point x="530" y="451"/>
      <point x="530" y="278" type="curve" smooth="yes"/>
      <point x="530" y="135"/>
      <point x="455" y="38"/>
      <point x="348" y="27" type="curve" smooth="yes"/>
      <point x="280" y="20"/>
      <point x="271" y="110"/>
      <point x="338" y="117" type="curve" smooth="yes"/>
      <point x="404" y="124"/>
      <point x="440" y="190"/>
      <point x="440" y="278" type="curve" smooth="yes"/>
      <point x="440" y="388"/>
      <point x="390" y="479"/>
      <point x="313" y="479" type="curve" smooth="yes"/>
      <point x="235" y="479"/>
      <point x="185" y="388"/>
      <point x="185" y="278" type="curve" smooth="yes"/>
      <point x="185" y="202"/>
      <point x="210" y="121"/>
      <point x="248" y="116" type="curve" smooth="yes"/>
      <point x="315" y="107"/>
      <point x="303" y="17"/>
    </contour>
    <contour>
      <point x="218" y="181" type="curve" smooth="yes"/>
      <point x="218" y="230"/>
      <point x="218" y="268"/>
      <point x="218" y="302" type="curve" smooth="yes"/>
      <point x="218" y="395"/>
      <point x="257" y="424"/>
      <point x="309" y="424" type="curve" smooth="yes"/>
      <point x="362" y="424"/>
      <point x="416" y="367"/>
      <point x="423" y="297" type="curve" smooth="yes"/>
      <point x="430" y="217"/>
      <point x="386" y="192"/>
      <point x="349" y="190" type="curve" smooth="yes"/>
      <point x="241" y="182"/>
      <point x="201" y="342"/>
      <point x="234" y="370" type="curve" smooth="yes"/>
      <point x="252" y="384"/>
      <point x="277" y="438"/>
      <point x="413" y="204" type="curve" smooth="yes"/>
      <point x="447" y="145"/>
      <point x="369" y="100"/>
      <point x="335" y="158" type="curve" smooth="yes"/>
      <point x="329" y="169"/>
      <point x="292" y="300"/>
      <point x="292" y="300" type="curve"/>
      <point x="291" y="300"/>
      <point x="341" y="280"/>
      <point x="345" y="280" type="curve" smooth="yes"/>
      <point x="346" y="280"/>
      <point x="333" y="286"/>
      <point x="333" y="289" type="curve" smooth="yes"/>
      <point x="332" y="300"/>
      <point x="317" y="334"/>
      <point x="309" y="334" type="curve" smooth="yes"/>
      <point x="307" y="334"/>
      <point x="308" y="306"/>
      <point x="308" y="302" type="curve" smooth="yes"/>
      <point x="308" y="252"/>
      <point x="308" y="214"/>
      <point x="308" y="181" type="curve" smooth="yes"/>
      <point x="308" y="114"/>
      <point x="218" y="114"/>
    </contour>
  </outline>
</glyph>
<glyph name="acute" format="2">
  <advance width="288"/>
  <unicode hex="00B4"/>
  <outline>
    <contour>
      <point x="302" y="566" type="curve" smooth="yes"/>
      <point x="275" y="523"/>
      <point x="239" y="491"/>
      <point x="196" y="473" type="curve" smooth="yes"/>
      <point x="134" y="446"/>
      <point x="98" y="529"/>
      <point x="160" y="555" type="curve" smooth="yes"/>
      <point x="187" y="567"/>
      <point x="209" y="587"/>
      <point x="226" y="614" type="curve" smooth="yes"/>
      <point x="262" y="671"/>
      <point x="338" y="623"/>
    </contour>
  </outline>
</glyph>
<glyph name="periodcentered" format="2">
  <advance width="184"/>
  <unicode hex="00B7"/>
  <outline>
    <contour>
      <point x="175" y="126" type="curve" smooth="yes"/>
      <point x="103" y="141"/>
      <point x="103" y="243"/>
      <point x="175" y="258" type="curve" smooth="yes"/>
      <point x="241" y="272"/>
      <point x="259" y="184"/>
      <point x="193" y="170" type="curve" smooth="yes"/>
      <point x="191" y="170"/>
      <point x="191" y="214"/>
      <point x="193" y="214" type="curve" smooth="yes"/>
      <point x="259" y="200"/>
      <point x="241" y="112"/>
    </contour>
  </outline>
</glyph>
<glyph name="threequarters" format="2">
  <advance width="678"/>
  <unicode hex="00BE"/>
  <outline>
    <contour>
      <point x="601" y="502" type="curve" smooth="yes"/>
      <point x="335" y="-98" type="line" smooth="yes"/>
      <point x="308" y="-160"/>
      <point x="226" y="-123"/>
      <point x="253" y="-62" type="curve" smooth="yes"/>
      <point x="519" y="538" type="line" smooth="yes"/>
      <point x="546" y="600"/>
      <point x="628" y="563"/>
    </contour>
    <contour>
      <point x="707" y="-32" type="curve" smooth="yes"/>
      <point x="655" y="-32"/>
      <point x="612" y="-32"/>
      <point x="577" y="-32" type="curve" smooth="yes"/>
      <point x="505" y="-32"/>
      <point x="463" y="18"/>
      <point x="499" y="109" type="curve" smooth="yes"/>
      <point x="512" y="144"/>
      <point x="518" y="158"/>
      <point x="537" y="207" type="curve" smooth="yes"/>
      <point x="584" y="327"/>
      <point x="697" y="317"/>
      <point x="697" y="180" type="curve" smooth="yes"/>
      <point x="697" y="115"/>
      <point x="697" y="12"/>
      <point x="696" y="-80" type="curve" smooth="yes"/>
      <point x="695" y="-148"/>
      <point x="605" y="-147"/>
      <point x="606" y="-80" type="curve" smooth="yes"/>
      <point x="607" y="12"/>
      <point x="607" y="115"/>
      <point x="607" y="180" type="curve" smooth="yes"/>
      <point x="607" y="186"/>
      <point x="623" y="179"/>
      <point x="621" y="173" type="curve" smooth="yes"/>
      <point x="602" y="126"/>
      <point x="596" y="112"/>
      <point x="583" y="77" type="curve" smooth="yes"/>
      <point x="581" y="72"/>
      <point x="574" y="58"/>
      <point x="577" y="58" type="curve" smooth="yes"/>
      <point x="629" y="58"/>
      <point x="672" y="58"/>
      <point x="707" y="58" type="curve" smooth="yes"/>
      <point x="775" y="58"/>
      <point x="775" y="-32"/>
    </contour>
    <contour>
      <point x="183" y="253" type="curve" smooth="yes"/>
      <point x="223" y="232"/>
      <point x="266" y="236"/>
      <point x="266" y="279" type="curve" smooth="yes"/>
      <point x="266" y="303"/>
      <point x="258" y="317"/>
      <point x="229" y="319" type="curve" smooth="yes"/>
      <point x="148" y="326"/>
      <point x="127" y="370"/>
      <point x="205" y="460" type="curve" smooth="yes"/>
      <point x="209" y="465"/>
      <point x="264" y="470"/>
      <point x="261" y="470" type="curve" smooth="yes"/>
      <point x="215" y="470"/>
      <point x="186" y="470"/>
      <point x="164" y="470" type="curve" smooth="yes"/>
      <point x="97" y="470"/>
      <point x="97" y="560"/>
      <point x="164" y="560" type="curve" smooth="yes"/>
      <point x="197" y="560"/>
      <point x="230" y="560"/>
      <point x="261" y="560" type="curve" smooth="yes"/>
      <point x="342" y="560"/>
      <point x="363" y="508"/>
      <point x="273" y="402" type="curve" smooth="yes"/>
      <point x="270" y="398"/>
      <point x="232" y="409"/>
      <point x="235" y="409" type="curve" smooth="yes"/>
      <point x="316" y="403"/>
      <point x="356" y="345"/>
      <point x="356" y="279" type="curve" smooth="yes"/>
      <point x="356" y="167"/>
      <point x="244" y="119"/>
      <point x="141" y="173" type="curve" smooth="yes"/>
      <point x="81" y="205"/>
      <point x="123" y="284"/>
    </contour>
  </outline>
</glyph>
<glyph name="Eth" format="2">
  <advance width="474"/>
  <unicode hex="00D0"/>
  <outline>
    <contour>
      <point x="135" y="-75" type="curve" smooth="yes"/>
      <point x="135" y="-38"/>
      <point x="135" y="1"/>
      <point x="135" y="77" type="curve" smooth="yes"/>
      <point x="135" y="199"/>
      <point x="135" y="294"/>
      <point x="135" y="376" type="curve" smooth="yes"/>
      <point x="135" y="545"/>
      <point x="168" y="560"/>
      <point x="214" y="560" type="curve" smooth="yes"/>
      <point x="255" y="560"/>
      <point x="271" y="560"/>
      <point x="313" y="560" type="curve" smooth="yes"/>
      <point x="457" y="560"/>
      <point x="540" y="425"/>
      <point x="540" y="221" type="curve" smooth="yes"/>
      <point x="540" y="16"/>
      <point x="443" y="-120"/>
      <point x="306" y="-120" type="curve" smooth="yes"/>
      <point x="284" y="-120"/>
      <point x="266" y="-120"/>
      <point x="251" y="-120" type="curve" smooth="yes"/>
      <point x="184" y="-120"/>
      <point x="184" y="-30"/>
      <point x="251" y="-30" type="curve" smooth="yes"/>
      <point x="273" y="-30"/>
      <point x="291" y="-30"/>
      <point x="306" y="-30" type="curve" smooth="yes"/>
      <point x="398" y="-30"/>
      <point x="450" y="84"/>
      <point x="450" y="221" type="curve" smooth="yes"/>
      <point x="450" y="357"/>
      <point x="409" y="470"/>
      <point x="313" y="470" type="curve" smooth="yes"/>
      <point x="251" y="470"/>
      <point x="242" y="470"/>
      <point x="214" y="470" type="curve" smooth="yes"/>
      <point x="212" y="470"/>
      <point x="225" y="384"/>
      <point x="225" y="376" type="curve" smooth="yes"/>
      <point x="225" y="254"/>
      <point x="225" y="159"/>
      <point x="225" y="77" type="curve" smooth="yes"/>
      <point x="225" y="-36"/>
      <point x="225" y="-50"/>
      <point x="225" y="-75" type="curve" smooth="yes"/>
      <point x="225" y="-142"/>
      <point x="135" y="-142"/>
    </contour>
    <contour>
      <point x="247" y="239" type="curve" smooth="yes"/>
      <point x="205" y="258"/>
      <point x="123" y="286"/>
      <point x="117" y="267" type="curve" smooth="yes"/>
      <point x="98" y="202"/>
      <point x="12" y="228"/>
      <point x="31" y="293" type="curve" smooth="yes"/>
      <point x="52" y="363"/>
      <point x="124" y="392"/>
      <point x="283" y="321" type="curve" smooth="yes"/>
      <point x="345" y="294"/>
      <point x="309" y="212"/>
    </contour>
  </outline>
</glyph>
<glyph name="Oslash" format="2">
  <advance width="518"/>
  <unicode hex="00D8"/>
  <outline>
    <contour>
      <point x="441" y="693" type="curve" smooth="yes"/>
      <point x="374" y="515"/>
      <point x="367" y="159"/>
      <point x="307" y="-2" type="curve" smooth="yes"/>
      <point x="299" y="-22"/>
      <point x="293" y="-41"/>
      <point x="279" y="-88" type="curve" smooth="yes"/>
      <point x="214" y="-298"/>
      <point x="42" y="1"/>
      <point x="99" y="77" type="curve" smooth="yes"/>
      <point x="192" y="202"/>
      <point x="128" y="44"/>
      <point x="127" y="50" type="curve" smooth="yes"/>
      <point x="122" y="72"/>
      <point x="104" y="134"/>
      <point x="104" y="221" type="curve" smooth="yes"/>
      <point x="104" y="432"/>
      <point x="206" y="570"/>
      <point x="342" y="570" type="curve" smooth="yes"/>
      <point x="480" y="570"/>
      <point x="584" y="433"/>
      <point x="584" y="221" type="curve" smooth="yes"/>
      <point x="584" y="115"/>
      <point x="557" y="27"/>
      <point x="514" y="-35" type="curve" smooth="yes"/>
      <point x="471" y="-97"/>
      <point x="398" y="-120"/>
      <point x="311" y="-99" type="curve" smooth="yes"/>
      <point x="245" y="-83"/>
      <point x="266" y="4"/>
      <point x="331" y="-11" type="curve" smooth="yes"/>
      <point x="378" y="-22"/>
      <point x="417" y="-17"/>
      <point x="440" y="17" type="curve" smooth="yes"/>
      <point x="475" y="65"/>
      <point x="494" y="137"/>
      <point x="494" y="221" type="curve" smooth="yes"/>
      <point x="494" y="365"/>
      <point x="435" y="480"/>
      <point x="342" y="480" type="curve" smooth="yes"/>
      <point x="251" y="480"/>
      <point x="194" y="363"/>
      <point x="194" y="221" type="curve" smooth="yes"/>
      <point x="194" y="144"/>
      <point x="210" y="90"/>
      <point x="215" y="68" type="curve" smooth="yes"/>
      <point x="237" y="-37"/>
      <point x="176" y="30"/>
      <point x="171" y="23" type="curve" smooth="yes"/>
      <point x="169" y="20"/>
      <point x="190" y="-70"/>
      <point x="193" y="-62" type="curve" smooth="yes"/>
      <point x="209" y="-11"/>
      <point x="215" y="8"/>
      <point x="223" y="30" type="curve" smooth="yes"/>
      <point x="279" y="179"/>
      <point x="284" y="533"/>
      <point x="357" y="725" type="curve" smooth="yes"/>
      <point x="381" y="788"/>
      <point x="465" y="756"/>
    </contour>
  </outline>
</glyph>
<glyph name="eth" format="2">
  <advance width="389"/>
  <unicode hex="00F0"/>
  <outline>
    <contour>
      <point x="266" y="628" type="curve" smooth="yes"/>
      <point x="301" y="585"/>
      <point x="325" y="555"/>
      <point x="342" y="531" type="curve" smooth="yes"/>
      <point x="414" y="431"/>
      <point x="460" y="313"/>
      <point x="460" y="147" type="curve" smooth="yes"/>
      <point x="460" y="-8"/>
      <point x="387" y="-130"/>
      <point x="275" y="-130" type="curve" smooth="yes"/>
      <point x="176" y="-130"/>
      <point x="99" y="-37"/>
      <point x="99" y="117" type="curve" smooth="yes"/>
      <point x="99" y="261"/>
      <point x="184" y="341"/>
      <point x="246" y="371" type="curve" smooth="yes"/>
      <point x="341" y="416"/>
      <point x="460" y="283"/>
      <point x="357" y="180" type="curve" smooth="yes"/>
      <point x="309" y="132"/>
      <point x="245" y="196"/>
      <point x="293" y="244" type="curve" smooth="yes"/>
      <point x="313" y="264"/>
      <point x="302" y="298"/>
      <point x="284" y="289" type="curve" smooth="yes"/>
      <point x="242" y="269"/>
      <point x="189" y="215"/>
      <point x="189" y="117" type="curve" smooth="yes"/>
      <point x="189" y="32"/>
      <point x="220" y="-40"/>
      <point x="275" y="-40" type="curve" smooth="yes"/>
      <point x="337" y="-40"/>
      <point x="370" y="61"/>
      <point x="370" y="147" type="curve" smooth="yes"/>
      <point x="370" y="291"/>
      <point x="332" y="391"/>
      <point x="268" y="479" type="curve" smooth="yes"/>
      <point x="253" y="501"/>
      <point x="227" y="533"/>
      <point x="196" y="572" type="curve" smooth="yes"/>
      <point x="154" y="624"/>
      <point x="224" y="681"/>
    </contour>
    <contour>
      <point x="385" y="507" type="curve" smooth="yes"/>
      <point x="310" y="520"/>
      <point x="265" y="501"/>
      <point x="244" y="438" type="curve" smooth="yes"/>
      <point x="222" y="374"/>
      <point x="137" y="402"/>
      <point x="158" y="466" type="curve" smooth="yes"/>
      <point x="193" y="569"/>
      <point x="278" y="616"/>
      <point x="401" y="595" type="curve" smooth="yes"/>
      <point x="467" y="584"/>
      <point x="452" y="495"/>
    </contour>
  </outline>
</glyph>
<glyph name="divide" format="2">
  <advance width="382"/>
  <unicode hex="00F7"/>
  <outline>
    <contour>
      <point x="158" y="230" type="curve" smooth="yes"/>
      <point x="255" y="191"/>
      <point x="338" y="182"/>
      <point x="379" y="221" type="curve" smooth="yes"/>
      <point x="428" y="267"/>
      <point x="490" y="202"/>
      <point x="441" y="155" type="curve" smooth="yes"/>
      <point x="377" y="95"/>
      <point x="273" y="86"/>
      <point x="124" y="146" type="curve" smooth="yes"/>
      <point x="62" y="172"/>
      <point x="95" y="255"/>
    </contour>
    <contour>
      <point x="272" y="296" type="curve" smooth="yes"/>
      <point x="200" y="311"/>
      <point x="200" y="413"/>
      <point x="272" y="428" type="curve" smooth="yes"/>
      <point x="338" y="442"/>
      <point x="356" y="354"/>
      <point x="290" y="340" type="curve" smooth="yes"/>
      <point x="288" y="340"/>
      <point x="288" y="384"/>
      <point x="290" y="384" type="curve" smooth="yes"/>
      <point x="356" y="370"/>
      <point x="338" y="282"/>
    </contour>
    <contour>
      <point x="272" y="-50" type="curve" smooth="yes"/>
      <point x="200" y="-35"/>
      <point x="200" y="67"/>
      <point x="272" y="82" type="curve" smooth="yes"/>
      <point x="338" y="96"/>
      <point x="356" y="8"/>
      <point x="290" y="-6" type="curve" smooth="yes"/>
      <point x="288" y="-6"/>
      <point x="288" y="38"/>
      <point x="290" y="38" type="curve" smooth="yes"/>
      <point x="356" y="24"/>
      <point x="338" y="-64"/>
    </contour>
  </outline>
</glyph>
<glyph name="thorn" format="2">
  <advance width="412"/>
  <unicode hex="00FE"/>
  <outline>
    <contour>
      <point x="116" y="-178" type="curve" smooth="yes"/>
      <point x="117" y="-177"/>
      <point x="118" y="-114"/>
      <point x="118" y="-111" type="curve" smooth="yes"/>
      <point x="118" y="-14"/>
      <point x="118" y="65"/>
      <point x="118" y="130" type="curve" smooth="yes"/>
      <point x="118" y="288"/>
      <point x="197" y="388"/>
      <point x="300" y="388" type="curve" smooth="yes"/>
      <point x="401" y="388"/>
      <point x="484" y="286"/>
      <point x="484" y="128" type="curve" smooth="yes"/>
      <point x="484" y="-30"/>
      <point x="366" y="-105"/>
      <point x="236" y="-58" type="curve" smooth="yes"/>
      <point x="104" y="-12"/>
      <point x="13" y="139"/>
      <point x="41" y="247" type="curve" smooth="yes"/>
      <point x="56" y="301"/>
      <point x="131" y="405"/>
      <point x="111" y="579" type="curve" smooth="yes"/>
      <point x="104" y="646"/>
      <point x="193" y="656"/>
      <point x="201" y="589" type="curve" smooth="yes"/>
      <point x="223" y="386"/>
      <point x="146" y="286"/>
      <point x="129" y="225" type="curve" smooth="yes"/>
      <point x="111" y="158"/>
      <point x="185" y="55"/>
      <point x="266" y="26" type="curve" smooth="yes"/>
      <point x="342" y="-1"/>
      <point x="394" y="37"/>
      <point x="394" y="128" type="curve" smooth="yes"/>
      <point x="394" y="217"/>
      <point x="357" y="298"/>
      <point x="300" y="298" type="curve" smooth="yes"/>
      <point x="242" y="298"/>
      <point x="208" y="219"/>
      <point x="208" y="130" type="curve" smooth="yes"/>
      <point x="208" y="33"/>
      <point x="208" y="-46"/>
      <point x="208" y="-111" type="curve" smooth="yes"/>
      <point x="208" y="-185"/>
      <point x="203" y="-227"/>
      <point x="168" y="-252" type="curve" smooth="yes"/>
      <point x="113" y="-291"/>
      <point x="61" y="-218"/>
    </contour>
  </outline>
</glyph>
<glyph name="oe" format="2">
  <advance width="677"/>
  <unicode hex="0153"/>
  <outline>
    <contour>
      <point x="489" y="201" type="curve" smooth="yes"/>
      <point x="557" y="173"/>
      <point x="571" y="174"/>
      <point x="629" y="174" type="curve" smooth="yes"/>
      <point x="654" y="174"/>
      <point x="656" y="182"/>
      <point x="649" y="210" type="curve" smooth="yes"/>
      <point x="637" y="260"/>
      <point x="612" y="298"/>
      <point x="574" y="298" type="curve" smooth="yes"/>
      <point x="515" y="298"/>
      <point x="479" y="220"/>
      <point x="479" y="124" type="curve" smooth="yes"/>
      <point x="479" y="-32"/>
      <point x="394" y="-131"/>
      <point x="289" y="-131" type="curve" smooth="yes"/>
      <point x="183" y="-131"/>
      <point x="99" y="-27"/>
      <point x="99" y="129" type="curve" smooth="yes"/>
      <point x="99" y="279"/>
      <point x="186" y="372"/>
      <point x="269" y="396" type="curve" smooth="yes"/>
      <point x="364" y="423"/>
      <point x="408" y="401"/>
      <point x="408" y="234" type="curve" smooth="yes"/>
      <point x="408" y="119"/>
      <point x="490" y="3"/>
      <point x="577" y="-23" type="curve" smooth="yes"/>
      <point x="608" y="-32"/>
      <point x="637" y="-26"/>
      <point x="665" y="-4" type="curve" smooth="yes"/>
      <point x="719" y="37"/>
      <point x="774" y="-34"/>
      <point x="721" y="-76" type="curve" smooth="yes"/>
      <point x="669" y="-116"/>
      <point x="610" y="-126"/>
      <point x="551" y="-109" type="curve" smooth="yes"/>
      <point x="430" y="-73"/>
      <point x="318" y="73"/>
      <point x="318" y="234" type="curve" smooth="yes"/>
      <point x="318" y="290"/>
      <point x="326" y="319"/>
      <point x="295" y="310" type="curve" smooth="yes"/>
      <point x="240" y="294"/>
      <point x="189" y="227"/>
      <point x="189" y="129" type="curve" smooth="yes"/>
      <point x="189" y="39"/>
      <point x="228" y="-41"/>
      <point x="289" y="-41" type="curve" smooth="yes"/>
      <point x="350" y="-41"/>
      <point x="389" y="33"/>
      <point x="389" y="124" type="curve" smooth="yes"/>
      <point x="389" y="291"/>
      <point x="472" y="388"/>
      <point x="574" y="388" type="curve" smooth="yes"/>
      <point x="651" y="388"/>
      <point x="713" y="331"/>
      <point x="737" y="230" type="curve" smooth="yes"/>
      <point x="758" y="138"/>
      <point x="709" y="84"/>
      <point x="629" y="84" type="curve" smooth="yes"/>
      <point x="561" y="84"/>
      <point x="536" y="85"/>
      <point x="455" y="117" type="curve" smooth="yes"/>
      <point x="393" y="142"/>
      <point x="426" y="226"/>
    </contour>
  </outline>
</glyph>
<glyph name="circumflex" format="2">
  <advance width="398"/>
  <unicode hex="02C6"/>
  <outline>
    <contour>
      <point x="170" y="547" type="curve" smooth="yes"/>
      <point x="200" y="556"/>
      <point x="204" y="564"/>
      <point x="218" y="581" type="curve" smooth="yes"/>
      <point x="267" y="639"/>
      <point x="303" y="636"/>
      <point x="349" y="581" type="curve" smooth="yes"/>
      <point x="369" y="558"/>
      <point x="379" y="546"/>
      <point x="389" y="534" type="curve" smooth="yes"/>
      <point x="435" y="485"/>
      <point x="368" y="424"/>
      <point x="323" y="474" type="curve" smooth="yes"/>
      <point x="311" y="486"/>
      <point x="299" y="502"/>
      <point x="281" y="523" type="curve" smooth="yes"/>
      <point x="279" y="525"/>
      <point x="290" y="526"/>
      <point x="288" y="523" type="curve" smooth="yes"/>
      <point x="264" y="495"/>
      <point x="246" y="476"/>
      <point x="196" y="461" type="curve" smooth="yes"/>
      <point x="131" y="442"/>
      <point x="105" y="528"/>
    </contour>
  </outline>
</glyph>
<glyph name="quoteleft" format="2">
  <advance width="194"/>
  <unicode hex="2018"/>
  <outline>
    <contour>
      <point x="239" y="508" type="curve" smooth="yes"/>
      <point x="220" y="462"/>
      <point x="203" y="383"/>
      <point x="223" y="358" type="curve" smooth="yes"/>
      <point x="265" y="305"/>
      <point x="195" y="249"/>
      <point x="153" y="302" type="curve" smooth="yes"/>
      <point x="112" y="353"/>
      <point x="117" y="449"/>
      <point x="155" y="542" type="curve" smooth="yes"/>
      <point x="181" y="605"/>
      <point x="264" y="570"/>
    </contour>
  </outline>
</glyph>
<glyph name="quoteright" format="2">
  <advance width="197"/>
  <unicode hex="2019"/>
  <outline>
    <contour>
      <point x="39" y="463" type="curve" smooth="yes"/>
      <point x="58" y="509"/>
      <point x="76" y="588"/>
      <point x="56" y="613" type="curve" smooth="yes"/>
      <point x="14" y="666"/>
      <point x="84" y="722"/>
      <point x="126" y="669" type="curve" smooth="yes"/>
      <point x="167" y="618"/>
      <point x="161" y="523"/>
      <point x="123" y="429" type="curve" smooth="yes"/>
      <point x="97" y="366"/>
      <point x="14" y="401"/>
    </contour>
  </outline>
</glyph>
<glyph name="guilsinglright" format="2">
  <advance width="281"/>
  <unicode hex="203A"/>
  <outline>
    <contour>
      <point x="36" y="91" type="curve" smooth="yes"/>
      <point x="189" y="287" type="line"/>
      <point x="188" y="231" type="line"/>
      <point x="35" y="429" type="line" smooth="yes"/>
      <point x="-6" y="483"/>
      <point x="65" y="538"/>
      <point x="107" y="485" type="curve" smooth="yes"/>
      <point x="260" y="287" type="line" smooth="yes"/>
      <point x="272" y="270"/>
      <point x="272" y="248"/>
      <point x="259" y="231" type="curve" smooth="yes"/>
      <point x="106" y="35" type="line" smooth="yes"/>
      <point x="65" y="-18"/>
      <point x="-6" y="37"/>
    </contour>
  </outline>
</glyph>
<glyph name="Euro" format="2">
  <advance width="428"/>
  <unicode hex="20AC"/>
  <outline>
    <contour>
      <point x="476" y="-17" type="curve" smooth="yes"/>
      <point x="450" y="-72"/>
      <point x="409" y="-97"/>
      <point x="366" y="-97" type="curve" smooth="yes"/>
      <point x="240" y="-97"/>
      <point x="144" y="17"/>
      <point x="144" y="220" type="curve" smooth="yes"/>
      <point x="144" y="421"/>
      <point x="239" y="537"/>
      <point x="363" y="537" type="curve" smooth="yes"/>
      <point x="388" y="537"/>
      <point x="409" y="539"/>
      <point x="426" y="542" type="curve" smooth="yes"/>
      <point x="492" y="556"/>
      <point x="510" y="468"/>
      <point x="444" y="454" type="curve" smooth="yes"/>
      <point x="423" y="449"/>
      <point x="396" y="447"/>
      <point x="363" y="447" type="curve" smooth="yes"/>
      <point x="282" y="447"/>
      <point x="234" y="351"/>
      <point x="234" y="220" type="curve" smooth="yes"/>
      <point x="234" y="86"/>
      <point x="283" y="-7"/>
      <point x="366" y="-7" type="curve" smooth="yes"/>
      <point x="378" y="-7"/>
      <point x="387" y="6"/>
      <point x="394" y="21" type="curve" smooth="yes"/>
      <point x="423" y="82"/>
      <point x="505" y="44"/>
    </contour>
    <contour>
      <point x="78" y="425" type="curve" smooth="yes"/>
      <point x="99" y="425"/>
      <point x="136" y="440"/>
      <point x="185" y="422" type="curve" smooth="yes"/>
      <point x="250" y="400"/>
      <point x="273" y="362"/>
      <point x="322" y="342" type="curve" smooth="yes"/>
      <point x="357" y="327"/>
      <point x="360" y="345"/>
      <point x="407" y="345" type="curve" smooth="yes"/>
      <point x="475" y="345"/>
      <point x="475" y="255"/>
      <point x="407" y="255" type="curve" smooth="yes"/>
      <point x="381" y="255"/>
      <point x="350" y="233"/>
      <point x="288" y="258" type="curve" smooth="yes"/>
      <point x="224" y="285"/>
      <point x="205" y="320"/>
      <point x="155" y="338" type="curve" smooth="yes"/>
      <point x="129" y="347"/>
      <point x="117" y="335"/>
      <point x="78" y="335" type="curve" smooth="yes"/>
      <point x="11" y="335"/>
      <point x="11" y="425"/>
    </contour>
    <contour>
      <point x="78" y="267" type="curve" smooth="yes"/>
      <point x="99" y="267"/>
      <point x="138" y="282"/>
      <point x="185" y="264" type="curve" smooth="yes"/>
      <point x="249" y="242"/>
      <point x="273" y="205"/>
      <point x="322" y="183" type="curve" smooth="yes"/>
      <point x="325" y="182"/>
      <point x="339" y="173"/>
      <point x="340" y="175" type="curve" smooth="yes"/>
      <point x="359" y="240"/>
      <point x="445" y="214"/>
      <point x="426" y="149" type="curve" smooth="yes"/>
      <point x="411" y="99"/>
      <point x="364" y="67"/>
      <point x="286" y="101" type="curve" smooth="yes"/>
      <point x="222" y="129"/>
      <point x="205" y="162"/>
      <point x="155" y="180" type="curve" smooth="yes"/>
      <point x="130" y="189"/>
      <point x="118" y="177"/>
      <point x="78" y="177" type="curve" smooth="yes"/>
      <point x="11" y="177"/>
      <point x="11" y="267"/>
    </contour>
  </outline>
</glyph>
<glyph name="divisionslash" format="2">
  <advance width="366"/>
  <unicode hex="2215"/>
  <outline>
    <contour>
      <point x="425" y="602" type="curve" smooth="yes"/>
      <point x="427" y="536"/>
      <point x="418" y="488"/>
      <point x="403" y="448" type="curve" smooth="yes"/>
      <point x="353" y="312"/>
      <point x="300" y="170"/>
      <point x="246" y="23" type="curve" smooth="yes"/>
      <point x="219" y="-52"/>
      <point x="194" y="-115"/>
      <point x="142" y="-156" type="curve" smooth="yes"/>
      <point x="88" y="-197"/>
      <point x="33" y="-126"/>
      <point x="86" y="-84" type="curve" smooth="yes"/>
      <point x="122" y="-57"/>
      <point x="143" y="3"/>
      <point x="162" y="55" type="curve" smooth="yes"/>
      <point x="212" y="190"/>
      <point x="265" y="332"/>
      <point x="319" y="478" type="curve" smooth="yes"/>
      <point x="330" y="510"/>
      <point x="337" y="547"/>
      <point x="335" y="598" type="curve" smooth="yes"/>
      <point x="333" y="666"/>
      <point x="423" y="669"/>
    </contour>
  </outline>
</glyph>
<glyph name="acute.cap" format="2">
  <advance width="288"/>
  <outline>
    <contour>
      <point x="302" y="749" type="curve" smooth="yes"/>
      <point x="237" y="643" type="line" smooth="yes"/>
      <point x="202" y="586"/>
      <point x="125" y="633"/>
      <point x="161" y="691" type="curve" smooth="yes"/>
      <point x="226" y="797" type="line" smooth="yes"/>
      <point x="261" y="854"/>
      <point x="338" y="807"/>
    </contour>
  </outline>
</glyph>
<glyph name="macron.cap" format="2">
  <advance width="346"/>
  <outline>
    <contour>
      <point x="346" y="666" type="curve" smooth="yes"/>
      <point x="170" y="666" type="line" smooth="yes"/>
      <point x="103" y="666"/>
      <point x="103" y="756"/>
      <point x="170" y="756" type="curve" smooth="yes"/>
      <point x="346" y="756" type="line" smooth="yes"/>
      <point x="414" y="756"/>
      <point x="414" y="666"/>
    </contour>
  </outline>
</glyph>
<glyph name="period" format="2">
  <advance width="181"/>
  <outline>
    <contour>
      <point x="62.48256367813389" y="55.0953523330905" type="curve" smooth="yes"/>
      <point x="61.46925723663105" y="54.793896307104504"/>
      <point x="63.05547502888674" y="56.241151598833305"/>
      <point x="63.748466653742085" y="53.82781849306515" type="curve" smooth="yes"/>
      <point x="84.44830169378028" y="-18.259051527176453"/>
      <point x="-11.66752499987519" y="-45.858831580560704"/>
      <point x="-32.36736003991338" y="26.228038439680898" type="curve" smooth="yes"/>
      <point x="-51.967279998828815" y="94.48447042344367"/>
      <point x="5.308514455757696" y="142.41765027920331"/>
      <point x="33.967915861155966" y="150.94374751983173" type="curve" smooth="yes"/>
      <point x="105.85421225121189" y="172.32973338256517"/>
      <point x="134.3688600681898" y="76.48133819582394"/>
    </contour>
  </outline>
</glyph>
<glyph name="s" format="2">
  <advance width="363"/>
  <outline>
    <contour>
      <point x="247.28106919401995" y="425.8820471088399" type="curve" smooth="yes"/>
      <point x="213.42315918456183" y="437.8561877528042"/>
      <point x="185.22299371760334" y="445.0881354520334"/>
      <point x="161.4822646872635" y="446.0687769284204" type="curve" smooth="yes"/>
      <point x="122.78208659704535" y="447.6673377700159"/>
      <point x="99.69354591744796" y="430.536686406396"/>
      <point x="99.68916268271761" y="395.02000705940765" type="curve" smooth="yes"/>
      <point x="99.67683545160655" y="295.13434235265606"/>
      <point x="305.44790164045014" y="319.38505714919665"/>
      <point x="305.4258890007651" y="141.02001092804886" type="curve" smooth="yes"/>
      <point x="305.39397541405816" y="-117.57089182241141"/>
      <point x="118.18888022005478" y="81.66444554265391"/>
      <point x="130.11803054713522" y="86.00829276357267" type="curve" smooth="yes"/>
      <point x="133.22491749605848" y="87.13962583162463"/>
      <point x="21.48837799376843" y="-97.69834853426644"/>
      <point x="38.05468441453186" y="77.71682044845582" type="curve" smooth="yes"/>
      <point x="45.10634909863709" y="152.38457804959813"/>
      <point x="144.66335923349348" y="142.98235847079116"/>
      <point x="137.61169454938826" y="68.31460086964884" type="curve" smooth="yes"/>
      <point x="137.286774138536" y="64.87412552602288"/>
      <point x="331.27951885980355" y="52.835182412076335"/>
      <point x="164.33389683633328" y="-7.955926458851124" type="curve" smooth="yes"/>
      <point x="-45.41364005863797" y="-84.33280412862605"/>
      <point x="205.42407471506945" y="126.32530262210473"/>
      <point x="205.42588976230866" y="141.03235226957503" type="curve" smooth="yes"/>
      <point x="205.43848874861985" y="243.12000772008773"/>
      <point x="-0.33237438602312414" y="220.51460999662243"/>
      <point x="-0.31083655573883107" y="395.0323484009338" type="curve" smooth="yes"/>
      <point x="-0.2996953367282964" y="485.3079387979924"/>
      <point x="67.24203019576072" y="550.0467656637718"/>
      <point x="165.60937449147676" y="545.9835754552851" type="curve" smooth="yes"/>
      <point x="198.22563445166082" y="544.6363187101069"/>
      <point x="234.10744382435473" y="536.6105370742347"/>
      <point x="280.6232181784498" y="520.159834000027" type="curve" smooth="yes"/>
      <point x="351.3315583468401" y="495.1532222617046"/>
      <point x="317.98940936241024" y="400.87543537051755"/>
    </contour>
  </outline>
</glyph>
